<svg width="256" height="155" viewBox="0 0 256 155" fill="none" xmlns="http://www.w3.org/2000/svg">
<path d="M72.9748 56.2931C72.9748 59.4828 73.3086 62.069 73.8926 63.9655C74.5601 65.8621 75.3944 67.931 76.5625 70.1724C76.9797 70.8621 77.1466 71.5517 77.1466 72.1552C77.1466 73.0173 76.646 73.8793 75.5613 74.7414L70.3049 78.3621C69.554 78.8793 68.8031 79.1379 68.1356 79.1379C67.3012 79.1379 66.4669 78.7069 65.6325 77.931C64.4645 76.6379 63.4632 75.2586 62.6289 73.8793C61.7945 72.4138 60.9602 70.7759 60.0424 68.7931C53.5345 76.7241 45.3579 80.6897 35.5125 80.6897C28.504 80.6897 22.9139 78.6207 18.8256 74.4828C14.7372 70.3448 12.6514 64.8276 12.6514 57.931C12.6514 50.6035 15.1544 44.6552 20.2439 40.1724C25.3335 35.6897 32.0917 33.4483 40.6855 33.4483C43.5223 33.4483 46.4425 33.7069 49.5296 34.1379C52.6167 34.569 55.7872 35.2586 59.1246 36.0345V29.7414C59.1246 23.1897 57.7897 18.6207 55.2032 15.9483C52.5333 13.2759 48.0278 11.9828 41.6033 11.9828C38.6831 11.9828 35.6794 12.3276 32.5923 13.1034C29.5052 13.8793 26.5016 14.8276 23.5813 16.0345C22.2464 16.6379 21.2452 16.9828 20.6611 17.1552C20.0771 17.3276 19.6599 17.4138 19.3262 17.4138C18.1581 17.4138 17.574 16.5517 17.574 14.7414V10.5172C17.574 9.13793 17.7409 8.10345 18.1581 7.5C18.5752 6.89655 19.3262 6.2931 20.4943 5.68966C23.4145 4.13793 26.9187 2.84483 31.0071 1.81034C35.0954 0.689655 39.434 0.172414 44.0229 0.172414C53.9517 0.172414 61.2105 2.5 65.8829 7.15517C70.4718 11.8103 72.808 18.8793 72.808 28.3621V56.2931H72.9748ZM39.1002 69.3966C41.8536 69.3966 44.6904 68.8793 47.694 67.8448C50.6977 66.8104 53.3676 64.9138 55.6204 62.3276C56.9553 60.6897 57.9565 58.8793 58.4571 56.8104C58.9578 54.7414 59.2915 52.2414 59.2915 49.3104V45.6897C56.8719 45.0862 54.2854 44.569 51.6155 44.2241C48.9456 43.8793 46.3591 43.7069 43.7726 43.7069C38.1825 43.7069 34.0941 44.8276 31.3408 47.1552C28.5874 49.4828 27.2525 52.7586 27.2525 57.069C27.2525 61.1207 28.2537 64.1379 30.3396 66.2069C32.342 68.3621 35.2622 69.3966 39.1002 69.3966ZM106.098 78.7069C104.597 78.7069 103.595 78.4483 102.928 77.8448C102.26 77.3276 101.676 76.1207 101.176 74.4828L81.5686 7.84483C81.068 6.12069 80.8177 5 80.8177 4.39655C80.8177 3.01724 81.4852 2.24138 82.8201 2.24138H90.9968C92.582 2.24138 93.6667 2.5 94.2507 3.10345C94.9182 3.62069 95.4188 4.82759 95.9194 6.46552L109.936 63.5345L122.952 6.46552C123.37 4.74138 123.87 3.62069 124.538 3.10345C125.205 2.58621 126.373 2.24138 127.875 2.24138H134.55C136.135 2.24138 137.22 2.5 137.887 3.10345C138.555 3.62069 139.139 4.82759 139.472 6.46552L152.655 64.2241L167.089 6.46552C167.59 4.74138 168.174 3.62069 168.758 3.10345C169.426 2.58621 170.51 2.24138 172.012 2.24138H179.772C181.106 2.24138 181.857 2.93103 181.857 4.39655C181.857 4.82759 181.774 5.25862 181.691 5.77586C181.607 6.2931 181.44 6.98276 181.106 7.93104L160.999 74.569C160.498 76.2931 159.914 77.4138 159.247 77.931C158.579 78.4483 157.494 78.7931 156.076 78.7931H148.901C147.315 78.7931 146.231 78.5345 145.563 77.931C144.896 77.3276 144.312 76.2069 143.978 74.4828L131.046 18.8793L118.197 74.3966C117.779 76.1207 117.279 77.2414 116.611 77.8448C115.944 78.4483 114.776 78.7069 113.274 78.7069H106.098ZM213.312 81.0345C208.974 81.0345 204.635 80.5173 200.463 79.4828C196.292 78.4483 193.038 77.3276 190.868 76.0345C189.533 75.2586 188.616 74.3966 188.282 73.6207C187.948 72.8448 187.781 71.9828 187.781 71.2069V66.8104C187.781 65 188.449 64.1379 189.7 64.1379C190.201 64.1379 190.702 64.2241 191.202 64.3966C191.703 64.569 192.454 64.9138 193.288 65.2586C196.125 66.5517 199.212 67.5862 202.466 68.2759C205.803 68.9655 209.057 69.3104 212.395 69.3104C217.651 69.3104 221.739 68.3621 224.576 66.4655C227.413 64.569 228.915 61.8104 228.915 58.2759C228.915 55.8621 228.164 53.8793 226.662 52.2414C225.16 50.6035 222.323 49.1379 218.235 47.7586L206.137 43.8793C200.046 41.8966 195.541 38.9655 192.787 35.0862C190.034 31.2931 188.616 27.069 188.616 22.5862C188.616 18.9655 189.367 15.7759 190.868 13.0172C192.37 10.2586 194.373 7.84483 196.876 5.94828C199.379 3.96552 202.216 2.5 205.553 1.46552C208.89 0.431034 212.395 0 216.066 0C217.901 0 219.82 0.0862069 221.656 0.344828C223.575 0.603448 225.327 0.948276 227.079 1.2931C228.748 1.72414 230.333 2.15517 231.835 2.67241C233.337 3.18966 234.505 3.7069 235.339 4.22414C236.507 4.91379 237.342 5.60345 237.842 6.37931C238.343 7.06897 238.593 8.01724 238.593 9.22414V13.2759C238.593 15.0862 237.926 16.0345 236.674 16.0345C236.007 16.0345 234.922 15.6897 233.504 15C228.748 12.7586 223.408 11.6379 217.484 11.6379C212.728 11.6379 208.974 12.4138 206.387 14.0517C203.801 15.6897 202.466 18.1897 202.466 21.7241C202.466 24.1379 203.3 26.2069 204.969 27.8448C206.638 29.4828 209.725 31.1207 214.147 32.5862L225.994 36.4655C232.002 38.4483 236.34 41.2069 238.927 44.7414C241.513 48.2759 242.765 52.3276 242.765 56.8104C242.765 60.5173 242.014 63.8793 240.596 66.8104C239.094 69.7414 237.091 72.3276 234.505 74.3966C231.918 76.5517 228.831 78.1035 225.244 79.2241C221.489 80.431 217.568 81.0345 213.312 81.0345Z" fill="#252F3E"/>
<path fill-rule="evenodd" clip-rule="evenodd" d="M229.081 122.931C201.631 143.879 161.749 155 127.457 155C79.3989 155 36.0962 136.638 3.38969 106.12C0.803205 103.706 3.13938 100.431 6.22648 102.327C41.6029 123.534 85.2394 136.379 130.378 136.379C160.831 136.379 194.289 129.827 225.076 116.379C229.665 114.224 233.587 119.482 229.081 122.931Z" fill="#FF9900"/>
<path fill-rule="evenodd" clip-rule="evenodd" d="M240.512 109.482C237.008 104.827 217.317 107.241 208.389 108.362C205.719 108.707 205.302 106.293 207.722 104.482C223.408 93.1031 249.189 96.3789 252.193 100.172C255.196 104.051 251.358 130.689 236.674 143.448C234.421 145.431 232.252 144.396 233.253 141.81C236.59 133.275 244.016 114.051 240.512 109.482Z" fill="#FF9900"/>
</svg>
