<svg width="191" height="155" viewBox="0 0 191 155" fill="none" xmlns="http://www.w3.org/2000/svg">
<path d="M154.49 114.039C146.921 121.865 136.334 126.29 124.865 126.305C113.389 126.329 102.793 121.934 95.2243 114.132C91.524 110.328 88.812 105.965 87.1266 101.299C85.4795 96.7183 84.8513 91.8195 85.2726 86.9673C85.6787 82.2315 87.0576 77.6277 89.333 73.4664C91.547 69.3983 94.5885 65.7261 98.3424 62.6207C105.697 56.5418 115.059 53.2578 124.865 53.2422C134.671 53.2267 144.025 56.4952 151.387 62.543C155.134 65.6407 158.175 69.2973 160.382 73.3577C162.657 77.519 164.044 82.115 164.45 86.8508C164.871 91.7108 164.235 96.6019 162.588 101.19C160.902 105.848 158.183 110.219 154.49 114.039Z" fill="white"/>
<path d="M100.395 87.4642C100.74 81.1368 103.804 75.5548 108.416 71.6032C112.944 67.7136 119.042 65.3457 125.684 65.3457C132.334 65.3535 138.425 67.7214 142.952 71.6032C147.564 75.5626 150.629 81.1368 150.981 87.4642C151.334 93.97 148.752 100.018 144.224 104.497C139.612 109.055 133.039 111.919 125.684 111.919C118.33 111.919 111.749 109.055 107.137 104.497C102.617 100.018 100.043 93.97 100.395 87.4642Z" fill="#005385"/>
<path d="M60.1057 100.274C60.1517 102.743 60.9331 107.557 62.0976 111.322C64.5568 119.28 68.7244 126.647 74.5315 133.138C80.4918 139.807 87.8157 145.163 96.2889 148.96C105.199 152.958 114.844 155 124.857 154.977C134.87 154.961 144.515 152.888 153.417 148.859C161.883 145.016 169.207 139.644 175.159 132.959C180.959 126.438 185.119 119.062 187.578 111.105C188.804 107.137 189.593 103.046 189.914 98.908C190.221 94.8709 190.091 90.8028 189.531 86.789C188.428 78.9167 185.739 71.5336 181.602 64.8025C177.81 58.6227 172.938 53.2037 167.138 48.6387L167.146 48.631L108.631 3.1053C108.585 3.06648 108.531 3.0199 108.485 2.98108C104.632 -0.000135607 98.1811 0.00762845 93.9599 3.00437C89.685 6.03217 89.2024 11.0397 92.9946 14.1995L92.9793 14.2072L117.387 34.3304L42.9756 34.4081H42.876C36.7319 34.4158 30.8176 38.5073 29.6454 43.67C28.4503 48.9338 32.6256 53.2969 39.0225 53.3279L39.0149 53.3512L76.7302 53.2736L9.42792 105.623C9.34364 105.693 9.25171 105.755 9.1751 105.818C2.83175 110.74 0.778595 118.938 4.77 124.124C8.83035 129.396 17.4567 129.403 23.8767 124.147L60.6037 93.6908C60.6037 93.6908 60.0674 97.8055 60.1057 100.274ZM154.49 114.039C146.921 121.865 136.333 126.29 124.865 126.306C113.388 126.329 102.793 121.935 95.224 114.132C91.5237 110.328 88.8117 105.965 87.1262 101.299C85.4791 96.7186 84.8509 91.8198 85.2723 86.9676C85.6783 82.2318 87.0573 77.628 89.3326 73.4667C91.5467 69.3986 94.5881 65.7264 98.342 62.621C105.697 56.5421 115.058 53.2581 124.865 53.2425C134.671 53.227 144.025 56.4955 151.387 62.5433C155.133 65.641 158.175 69.2976 160.381 73.358C162.656 77.5193 164.043 82.1153 164.449 86.8511C164.871 91.7111 164.235 96.6022 162.588 101.19C160.902 105.849 158.182 110.22 154.49 114.039Z" fill="#FF7021"/>
</svg>
