<svg width="103" height="155" viewBox="0 0 103 155" fill="none" xmlns="http://www.w3.org/2000/svg">
<g clip-path="url(#clip0_148_81)">
<path d="M51.5 77.5003C51.5 63.2332 63.0262 51.667 77.2449 51.667C91.4631 51.667 102.99 63.2332 102.99 77.5003C102.99 91.7678 91.4631 103.334 77.2449 103.334C63.0262 103.334 51.5 91.7678 51.5 77.5003Z" fill="#3C91FF"/>
<path d="M0.0102539 129.166C0.0102539 114.899 11.5365 103.333 25.7551 103.333H51.5V129.166C51.5 143.434 39.9737 155 25.7551 155C11.5365 155 0.0102539 143.434 0.0102539 129.166Z" fill="#0ACF83"/>
<path d="M51.5 0V51.6663H77.2449C91.4635 51.6663 102.99 40.1004 102.99 25.833C102.99 11.5655 91.4635 0 77.2449 0H51.5Z" fill="#FF7262"/>
<path d="M0.00976562 25.8333C0.00976562 40.1008 11.536 51.6667 25.7546 51.6667H51.4995V0H25.7546C11.536 0 0.00976562 11.5662 0.00976562 25.8333Z" fill="#F24E1E"/>
<path d="M0.0102539 77.5003C0.0102539 91.7678 11.5365 103.334 25.7551 103.334H51.5V51.667H25.7551C11.5365 51.667 0.0102539 63.2332 0.0102539 77.5003Z" fill="#A259FF"/>
</g>
<defs>
<clipPath id="clip0_148_81">
<rect width="103" height="155" fill="white"/>
</clipPath>
</defs>
</svg>
