<svg width="146" height="155" viewBox="0 0 146 155" fill="none" xmlns="http://www.w3.org/2000/svg">
<g clip-path="url(#clip0_148_71)">
<path d="M68.2243 0.120774C67.9107 0.151044 66.9127 0.256991 66.0146 0.332667C45.3 2.31538 25.897 14.1814 13.608 32.4194C6.76487 42.56 2.38815 54.0628 0.734409 66.2466C0.149895 70.4996 0.0786133 71.7559 0.0786133 77.5224C0.0786133 83.2889 0.149895 84.5452 0.734409 88.7982C4.69769 117.873 24.1862 142.301 50.6176 151.352C55.3508 152.972 60.3405 154.076 66.0146 154.742C68.2243 155 77.7761 155 79.9859 154.742C89.78 153.592 98.0772 151.019 106.26 146.585C107.515 145.903 107.757 145.722 107.586 145.57C107.472 145.48 102.126 137.867 95.7107 128.664L84.0489 111.94L69.4361 88.9798C61.3955 76.357 54.7805 66.0348 54.7235 66.0348C54.6664 66.0196 54.6094 76.2208 54.5809 88.6771C54.5381 110.487 54.5239 111.365 54.2673 111.879C53.8966 112.621 53.6115 112.924 53.0127 113.257C52.5565 113.499 52.1573 113.544 50.0046 113.544H47.5382L46.8824 113.105C46.4547 112.818 46.1411 112.439 45.9273 112L45.6279 111.319L45.6564 80.9732L45.6992 50.6119L46.1411 50.0217C46.3692 49.7038 46.8539 49.2952 47.1961 49.0984C47.7806 48.7957 48.0087 48.7654 50.4751 48.7654C53.3834 48.7654 53.8681 48.8865 54.6237 49.7644C54.8375 50.0065 62.7498 62.6596 72.2161 77.9008C81.6824 93.142 94.6272 113.953 100.986 124.169L112.533 142.74L113.118 142.332C118.293 138.76 123.767 133.674 128.101 128.377C137.325 117.131 143.27 103.419 145.266 88.7982C145.851 84.5452 145.922 83.2889 145.922 77.5224C145.922 71.7559 145.851 70.4996 145.266 66.2466C141.303 37.1718 121.814 12.7436 95.3828 3.69269C90.7209 2.08836 85.7597 0.983483 80.1997 0.317532C78.8311 0.16618 69.4076 -0.000307994 68.2243 0.120774ZM98.0773 46.9492C98.7616 47.3125 99.3176 48.0087 99.5171 48.7352C99.6312 49.1287 99.6597 57.5439 99.6312 76.5083L99.5884 103.722L95.0691 96.3658L90.5356 89.0101V69.2283C90.5356 56.439 90.5926 49.2498 90.6782 48.9017C90.9063 48.0541 91.4052 47.3881 92.0896 46.9946C92.6741 46.6768 92.8879 46.6465 95.1262 46.6465C97.2361 46.6465 97.6068 46.6768 98.0773 46.9492Z" fill="black"/>
<path d="M111.82 143.074C111.321 143.407 111.164 143.634 111.606 143.376C111.92 143.18 112.433 142.771 112.348 142.756C112.305 142.756 112.063 142.907 111.82 143.074ZM110.837 143.755C110.58 143.967 110.58 143.982 110.894 143.815C111.065 143.725 111.207 143.619 111.207 143.588C111.207 143.467 111.136 143.497 110.837 143.755ZM110.124 144.209C109.867 144.421 109.867 144.436 110.181 144.269C110.352 144.179 110.494 144.073 110.494 144.042C110.494 143.921 110.423 143.952 110.124 144.209ZM109.411 144.663C109.154 144.875 109.154 144.89 109.468 144.723C109.639 144.633 109.782 144.527 109.782 144.496C109.782 144.375 109.71 144.406 109.411 144.663ZM108.327 145.268C107.786 145.571 107.814 145.692 108.356 145.405C108.598 145.268 108.784 145.132 108.784 145.102C108.784 144.996 108.769 145.011 108.327 145.268Z" fill="black"/>
</g>
<defs>
<clipPath id="clip0_148_71">
<rect width="146" height="155" fill="white"/>
</clipPath>
</defs>
</svg>
