<svg width="137" height="155" viewBox="0 0 137 155" fill="none" xmlns="http://www.w3.org/2000/svg">
<g clip-path="url(#clip0_148_59)">
<path d="M62.3343 1.96775C66.0592 -0.222583 70.9109 -0.232477 74.6327 1.96775C93.3564 12.8364 112.086 23.6881 130.806 34.5634C134.328 36.6009 136.683 40.6265 136.647 44.7945V110.185C136.673 114.525 134.085 118.647 130.37 120.638C111.708 131.447 93.0557 142.269 74.3967 153.078C70.5947 155.311 65.6456 155.139 61.9624 152.723C56.3675 149.391 50.763 146.075 45.1675 142.747C44.0241 142.047 42.7352 141.489 41.9279 140.35C42.6416 139.362 43.9177 139.239 44.9546 138.807C47.29 138.045 49.435 136.82 51.5805 135.632C52.123 135.25 52.7854 135.396 53.3055 135.738C58.0898 138.556 62.8318 141.456 67.6322 144.247C68.6563 144.854 69.6932 144.048 70.5685 143.546C88.8818 132.914 107.218 122.321 125.528 111.685C126.206 111.349 126.581 110.61 126.526 109.846C126.539 88.2753 126.529 66.7006 126.533 45.1298C126.61 44.2635 126.122 43.4671 125.36 43.1126C106.762 32.3532 88.1745 21.5775 69.5803 10.8154C69.2581 10.5879 68.8765 10.4658 68.4856 10.4652C68.0946 10.4646 67.7126 10.5855 67.3898 10.8121C48.7956 21.5775 30.211 32.3631 11.6168 43.1219C10.8571 43.477 10.3472 44.2602 10.4376 45.1298C10.4408 66.7006 10.4376 88.2753 10.4376 109.849C10.4054 110.222 10.485 110.596 10.6658 110.92C10.8466 111.245 11.1199 111.505 11.4488 111.665C16.4108 114.555 21.3791 117.426 26.3443 120.306C29.1415 121.853 32.5759 122.772 35.6577 121.587C38.3773 120.585 40.2837 117.734 40.2318 114.768C40.2575 93.3227 40.2189 71.8744 40.251 50.4327C40.1831 49.4807 41.0622 48.6942 41.9632 48.7838C44.3473 48.7673 46.7347 48.7508 49.1188 48.7904C50.114 48.7673 50.7988 49.7924 50.6757 50.7515C50.6661 72.3323 50.7014 93.9135 50.6597 115.494C50.6661 121.246 48.366 127.504 43.1873 130.318C36.8075 133.713 28.9221 132.993 22.6194 129.738C17.163 126.94 11.956 123.638 6.59655 120.641C2.87214 118.661 0.296997 114.522 0.323214 110.185V44.7945C0.284157 40.5402 2.73303 36.4415 6.36381 34.4337C25.0228 23.6161 43.6785 12.7903 62.3343 1.96775Z" fill="#8CC84B"/>
<path d="M78.6122 47.2639C86.7502 46.7258 95.4622 46.9451 102.785 51.0636C108.455 54.2197 111.598 60.8435 111.699 67.3144C111.54 68.1873 110.652 68.6688 109.841 68.6089C107.48 68.6056 105.118 68.6418 102.757 68.5924C101.755 68.6319 101.173 67.6832 101.047 66.7736C100.369 63.6774 98.7254 60.611 95.8886 59.1176C91.534 56.8778 86.4848 56.9905 81.7363 57.0372C78.2698 57.2262 74.5422 57.5346 71.6054 59.6287C69.3507 61.215 68.6658 64.4173 69.4705 66.9962C70.2292 68.8479 72.31 69.4454 74.0125 69.9962C83.8198 72.6312 94.2124 72.369 103.832 75.8367C107.815 77.2504 111.711 79.9986 113.075 84.2825C114.858 90.0241 114.076 96.887 110.1 101.496C106.875 105.289 102.179 107.354 97.4943 108.475C91.2627 109.903 84.7957 109.939 78.4672 109.305C72.5165 108.608 66.324 107.002 61.7301 102.837C57.8019 99.3329 55.8832 93.8733 56.0737 88.6038C56.1192 87.714 56.9817 87.0934 57.8115 87.1665C60.1892 87.1467 62.5669 87.1401 64.9447 87.1698C65.8943 87.1 66.5985 87.9432 66.6471 88.8627C67.0859 91.8127 68.1651 94.9088 70.669 96.6578C75.5015 99.8606 81.5651 99.6413 87.0985 99.7309C91.6827 99.522 96.8287 99.4588 100.57 96.3462C102.543 94.5708 103.128 91.6005 102.595 89.0452C102.017 86.8879 99.8201 85.8826 97.9336 85.2252C88.252 82.079 77.7433 83.2206 68.1554 79.6628C64.263 78.2496 60.499 75.5778 59.0036 71.4698C56.9169 65.6556 57.873 58.464 62.2662 54.0103C66.5498 49.5801 72.7332 47.8746 78.6122 47.2639Z" fill="#8CC84B"/>
</g>
<defs>
<clipPath id="clip0_148_59">
<rect width="137" height="155" fill="white"/>
</clipPath>
</defs>
</svg>
