<svg width="131" height="155" viewBox="0 0 131 155" fill="none" xmlns="http://www.w3.org/2000/svg">
<path d="M131 77.5139C131 68.5026 120.132 59.9628 103.47 54.6669C107.315 37.0326 105.606 23.0028 98.0764 18.5111C96.3408 17.4575 94.3114 16.9584 92.0952 16.9584V23.1415C93.3235 23.1415 94.3115 23.391 95.1392 23.8624C98.7707 26.0251 100.346 34.26 99.1178 44.8516C98.8241 47.4579 98.3435 50.2029 97.756 53.0033C92.5224 51.6724 86.8082 50.6465 80.8002 49.9811C77.1955 44.8516 73.4572 40.1935 69.6922 36.1177C78.3971 27.7164 86.5679 23.1138 92.1219 23.1138V16.9307C84.7788 16.9307 75.1661 22.3651 65.4466 31.7923C55.7271 22.4206 46.1144 17.0416 38.7713 17.0416V23.2247C44.2986 23.2247 52.4961 27.7996 61.201 36.1454C57.4627 40.2212 53.7244 44.8516 50.1731 49.9811C44.1384 50.6465 38.4242 51.6724 33.1906 53.031C32.5764 50.2584 32.1225 47.5688 31.8021 44.9902C30.5471 34.3986 32.0958 26.1637 35.7006 23.9733C36.5016 23.4742 37.543 23.2524 38.7713 23.2524V17.0693C36.5283 17.0693 34.499 17.5684 32.7366 18.622C25.2334 23.1138 23.5512 37.1158 27.423 54.6946C10.8143 60.0182 0 68.5304 0 77.5139C0 86.5251 10.8677 95.065 27.5298 100.361C23.6847 117.995 25.3936 132.025 32.9236 136.517C34.6592 137.57 36.6885 138.069 38.9315 138.069C46.2746 138.069 55.8873 132.635 65.6068 123.208C75.3263 132.579 84.9391 137.958 92.2821 137.958C94.5251 137.958 96.5544 137.459 98.3168 136.406C105.82 131.914 107.502 117.912 103.63 100.333C120.186 95.0372 131 86.4974 131 77.5139ZM96.234 59.02C95.246 62.5968 94.0177 66.2845 92.6292 69.9721C91.5344 67.754 90.3863 65.5359 89.1313 63.3177C87.903 61.0996 86.5946 58.9369 85.2862 56.8296C89.0779 57.4119 92.736 58.1328 96.234 59.02ZM84.0045 88.5491C81.9217 92.2923 79.7856 95.8413 77.5693 99.1408C73.5907 99.5013 69.5587 99.6953 65.5 99.6953C61.468 99.6953 57.436 99.5013 53.4841 99.1685C51.2678 95.869 49.105 92.3477 47.0222 88.6323C44.9929 85.0001 43.1504 81.3124 41.4682 77.597C43.1237 73.8816 44.9929 70.1662 46.9955 66.534C49.0783 62.7909 51.2144 59.2419 53.4307 55.9424C57.4093 55.5819 61.4413 55.3878 65.5 55.3878C69.532 55.3878 73.564 55.5819 77.5159 55.9146C79.7322 59.2141 81.895 62.7354 83.9778 66.4508C86.0071 70.0831 87.8496 73.7707 89.5318 77.4861C87.8496 81.2015 86.0071 84.9169 84.0045 88.5491ZM92.6292 84.9447C94.0711 88.6601 95.2994 92.3755 96.3141 95.9799C92.8162 96.8672 89.1313 97.6158 85.3129 98.1981C86.6213 96.0631 87.9297 93.8727 89.158 91.6268C90.3863 89.4087 91.5344 87.1628 92.6292 84.9447ZM65.5534 114.529C63.0701 111.867 60.5868 108.901 58.1303 105.657C60.5334 105.768 62.99 105.851 65.4733 105.851C67.9833 105.851 70.4666 105.795 72.8965 105.657C70.4933 108.901 68.01 111.867 65.5534 114.529ZM45.6871 98.1981C41.8954 97.6158 38.2373 96.8949 34.7393 96.0077C35.7273 92.4309 36.9556 88.7432 38.3441 85.0556C39.4388 87.2737 40.587 89.4919 41.842 91.71C43.097 93.9282 44.3787 96.0909 45.6871 98.1981ZM65.4199 40.4985C67.9032 43.1603 70.3865 46.127 72.843 49.3711C70.4399 49.2602 67.9833 49.177 65.5 49.177C62.99 49.177 60.5067 49.2325 58.0769 49.3711C60.48 46.127 62.9633 43.1603 65.4199 40.4985ZM45.6604 56.8296C44.352 58.9646 43.0436 61.155 41.8153 63.4009C40.587 65.619 39.4388 67.8372 38.3441 70.0553C36.9022 66.3399 35.6739 62.6245 34.6592 59.02C38.1572 58.1605 41.842 57.4119 45.6604 56.8296ZM21.4951 91.5437C12.0426 87.3569 5.92784 81.867 5.92784 77.5139C5.92784 73.1607 12.0426 67.6431 21.4951 63.4841C23.7915 62.4582 26.3015 61.5432 28.8916 60.6837C30.4136 66.1181 32.4162 71.7744 34.8995 77.5693C32.4429 83.3365 30.467 88.965 28.9717 94.3718C26.3282 93.5123 23.8182 92.5695 21.4951 91.5437ZM35.8608 131.165C32.2293 129.003 30.6539 120.768 31.8822 110.176C32.1759 107.57 32.6565 104.825 33.244 102.024C38.4776 103.355 44.1918 104.381 50.1998 105.047C53.8045 110.176 57.5428 114.834 61.3078 118.91C52.6029 127.311 44.4321 131.914 38.8781 131.914C37.6765 131.886 36.6618 131.637 35.8608 131.165ZM99.1979 110.037C100.453 120.629 98.9042 128.864 95.2994 131.054C94.4984 131.554 93.457 131.775 92.2287 131.775C86.7014 131.775 78.5039 127.2 69.799 118.855C73.5373 114.779 77.2756 110.148 80.827 105.019C86.8616 104.353 92.5758 103.328 97.8094 101.969C98.4236 104.769 98.9042 107.459 99.1979 110.037ZM109.478 91.5437C107.182 92.5695 104.672 93.4845 102.082 94.3441C100.56 88.9096 98.5571 83.2533 96.0738 77.4584C98.5304 71.6912 100.506 66.0627 102.002 60.6559C104.645 61.5155 107.155 62.4582 109.505 63.4841C118.957 67.6708 125.072 73.1607 125.072 77.5139C125.045 81.867 118.931 87.3846 109.478 91.5437Z" fill="#61DAFB"/>
<path d="M65.4733 90.1851C72.2127 90.1851 77.6761 84.512 77.6761 77.5139C77.6761 70.5159 72.2127 64.8428 65.4733 64.8428C58.7339 64.8428 53.2705 70.5159 53.2705 77.5139C53.2705 84.512 58.7339 90.1851 65.4733 90.1851Z" fill="#61DAFB"/>
</svg>
