<svg width="246" height="155" viewBox="0 0 246 155" fill="none" xmlns="http://www.w3.org/2000/svg">
<g clip-path="url(#clip0_148_93)">
<path d="M123 0.206055C90.2003 0.206055 69.6997 17.3828 61.5 51.7353C73.8 34.5586 88.1497 28.1174 104.55 32.4118C113.907 34.8615 120.595 41.9719 127.998 49.8412C140.058 62.6621 154.014 77.4999 184.5 77.4999C217.3 77.4999 237.8 60.3232 246 25.9707C233.7 43.1474 219.35 49.5886 202.95 45.2942C193.593 42.8445 186.905 35.7341 179.502 27.8648C167.442 15.0439 153.486 0.206055 123 0.206055ZM61.5 77.4999C28.7003 77.4999 8.19968 94.6767 0 129.029C12.3 111.852 26.6497 105.411 43.05 109.706C52.4066 112.155 59.0948 119.266 66.4978 127.135C78.5576 139.956 92.5143 154.794 123 154.794C155.8 154.794 176.3 137.617 184.5 103.265C172.2 120.441 157.85 126.882 141.45 122.588C132.093 120.138 125.405 113.028 118.002 105.159C105.942 92.3378 91.9857 77.4999 61.5 77.4999Z" fill="url(#paint0_linear_148_93)"/>
</g>
<defs>
<linearGradient id="paint0_linear_148_93" x1="-1749.47" y1="7598.5" x2="-951.046" y2="16152.9" gradientUnits="userSpaceOnUse">
<stop stop-color="#2298BD"/>
<stop offset="1" stop-color="#0ED7B5"/>
</linearGradient>
<clipPath id="clip0_148_93">
<rect width="246" height="155" fill="white"/>
</clipPath>
</defs>
</svg>
