<svg width="146" height="155" viewBox="0 0 146 155" fill="none" xmlns="http://www.w3.org/2000/svg">
<g clip-path="url(#clip0_148_74)">
<path d="M0 77.5V0H146V155H0" fill="#007ACC"/>
<path d="M32.0107 77.7711V84.0874H50.9907V141.437H64.4592V84.0874H83.4392V77.8874C83.4392 74.3999 83.4392 71.5711 83.2932 71.4936C83.2932 71.3774 71.7227 71.3386 57.6702 71.3386L32.1202 71.4549V77.8099L32.0107 77.7711ZM117.311 71.2999C121.034 72.2299 123.881 74.0124 126.436 76.8411C127.787 78.3911 129.794 81.1036 129.94 81.8011C129.94 82.0336 123.626 86.5674 119.793 89.0861C119.647 89.2024 119.063 88.5436 118.479 87.5361C116.581 84.6686 114.647 83.4286 111.617 83.1961C107.237 82.8861 104.317 85.3274 104.317 89.3961C104.317 90.6361 104.536 91.3336 104.974 92.3411C105.96 94.4724 107.785 95.7511 113.442 98.3861C123.881 103.152 128.407 106.291 131.145 110.786C134.247 115.824 134.941 123.729 132.86 129.657C130.524 136.129 124.83 140.507 116.691 141.941C114.136 142.406 108.296 142.329 105.558 141.825C99.7183 140.662 94.1337 137.562 90.7027 133.571C89.3522 132.021 86.7608 127.875 86.9068 127.604L88.2937 126.674L93.7687 123.302L97.8933 120.745L98.8422 122.101C100.047 124.116 102.748 126.829 104.317 127.759C109.062 130.355 115.413 130.006 118.552 126.984C119.903 125.666 120.487 124.271 120.487 122.334C120.487 120.551 120.231 119.737 119.392 118.381C118.224 116.676 115.888 115.281 109.318 112.181C101.762 108.771 98.5502 106.601 95.5572 103.269C93.8417 101.254 92.2723 98.1149 91.5423 95.5186C90.9948 93.2711 90.8122 87.7686 91.3232 85.5599C92.8927 77.8099 98.4043 72.3849 106.288 70.8349C108.843 70.2924 114.866 70.5249 117.384 71.2224L117.311 71.2999Z" fill="white"/>
</g>
<defs>
<clipPath id="clip0_148_74">
<rect width="146" height="155" fill="white"/>
</clipPath>
</defs>
</svg>
